<svg xmlns="http://www.w3.org/2000/svg" viewBox="0 0 2000 875"><g fill="none" stroke="#d2809a" stroke-width="2"><path d="M771.67 456.81q-.3 11.87-2.11 25.45C745.53 661.88 582.07 790.53 401.5 769.78c-99.24-11.41-187.9-66.63-242.46-150.32-97.45-149.49-57.28-350.49 87.73-452.67q78.66-55.43 175.49-60.7c10.2-.56 22.68-.25 34.01-.46a.57.52 89.5 0 0 .51-.57L456.76 72a.71.42 1.9 0 0-.68-.43C230.67 62.41 49.38 254.49 73.77 478.89 93.56 660.98 245.15 800.66 427.75 806c116.46 3.41 228.86-48.19 300.7-140.3q82.53-105.81 78.14-242.73a.59.49-.5 0 0-.59-.48l-261.25.01a.5.5 0 0 0-.5.5v32.75a.5.5 0 0 0 .5.5h226.5a.54.42-88.7 0 1 .42.56" vector-effect="non-scaling-stroke"/><path d="M351.48 298.74a52.53 52.53 0 0 0-52.53-52.53 52.53 52.53 0 0 0-52.53 52.53 52.53 52.53 0 0 0 52.53 52.53 52.53 52.53 0 0 0 52.53-52.53m105.77 298.01a.5.5 0 0 1-.5-.5v-349.5a.5.5 0 0 0-.5-.5H422a.5.5 0 0 0-.5.5V631a.5.5 0 0 0 .5.5h121.5a.5.5 0 0 0 .5-.5v-33.75a.5.5 0 0 0-.5-.5h-86.25" vector-effect="non-scaling-stroke"/></g><path fill="#a50034" d="M431.56 0h15.5c155.07 3.44 293.89 85.58 372.18 218.87 90.1 153.38 75.66 350.18-33.51 489.6C712.61 801.85 606.38 861.35 488.44 875h-98.5C169.98 849.5 5.2 667.93 0 446.94v-13.75C2.31 301.35 62.51 176.45 166.45 94.91Q282.29 4.02 431.56 0Zm340.11 456.81q-.3 11.87-2.11 25.45C745.53 661.88 582.07 790.53 401.5 769.78c-99.24-11.41-187.9-66.63-242.46-150.32-97.45-149.49-57.28-350.49 87.73-452.67q78.66-55.43 175.49-60.7c10.2-.56 22.68-.25 34.01-.46a.57.52 89.5 0 0 .51-.57L456.76 72a.71.42 1.9 0 0-.68-.43C230.67 62.41 49.38 254.49 73.77 478.89 93.56 660.98 245.15 800.66 427.75 806c116.46 3.41 228.86-48.19 300.7-140.3q82.53-105.81 78.14-242.73a.59.49-.5 0 0-.59-.48l-261.25.01a.5.5 0 0 0-.5.5v32.75a.5.5 0 0 0 .5.5h226.5a.54.42-88.7 0 1 .42.56ZM351.48 298.74a52.53 52.53 0 0 0-52.53-52.53 52.53 52.53 0 0 0-52.53 52.53 52.53 52.53 0 0 0 52.53 52.53 52.53 52.53 0 0 0 52.53-52.53Zm105.77 298.01a.5.5 0 0 1-.5-.5v-349.5a.5.5 0 0 0-.5-.5H422a.5.5 0 0 0-.5.5V631a.5.5 0 0 0 .5.5h121.5a.5.5 0 0 0 .5-.5v-33.75a.5.5 0 0 0-.5-.5h-86.25Z"/><path fill="#fff" d="M771.25 456.25h-226.5a.5.5 0 0 1-.5-.5V423a.5.5 0 0 1 .5-.5l261.25-.01a.59.49-.5 0 1 .59.48q4.39 136.92-78.14 242.73c-71.84 92.11-184.24 143.71-300.7 140.3-182.6-5.34-334.19-145.02-353.98-327.11-24.39-224.4 156.9-416.48 382.31-407.32a.71.42 1.9 0 1 .68.43l.02 33.06a.57.52 89.5 0 1-.51.57c-11.33.21-23.81-.1-34.01.46q-96.83 5.27-175.49 60.7C101.76 268.97 61.59 469.97 159.04 619.46c54.56 83.69 143.22 138.91 242.46 150.32 180.57 20.75 344.03-107.9 368.06-287.52q1.81-13.58 2.11-25.45a.54.42-88.7 0 0-.42-.56Z"/><path fill="#6b6b6b" d="M2000 394.98v278.08c-30.14 19.62-64.89 32.31-100.57 40.61q-62.4 14.51-127.44 13.76c-41.9-.49-83.08-6.09-122.29-20.61-72.4-26.83-117.57-83.08-137.36-156.34-14.27-52.83-16.85-109.72-12.2-164.05 3.92-45.8 15.5-91.65 38.72-131.58 59.22-101.9 178.63-123.3 286.13-113.07 67.23 6.4 134.71 33.52 174.24 90.51a.67.62-38.9 0 1-.12.83l-80.89 74.35a.86.83 49.2 0 1-1.24-.11c-21.69-27.36-47.95-46.05-82.23-54.1-26.73-6.28-55.55-6.84-82.75-3.75-49.05 5.59-89.32 29.14-108.46 76.27-17.47 42.99-19.12 93.22-16.12 139.29 3.63 55.72 19.35 113.66 76.24 137.26 21.75 9.03 43.65 12.53 67.07 13.57q55.38 2.45 108.48-14.18a1.13.98-10 0 0 .79-.97v-99a.5.5 0 0 0-.5-.5H1773a.5.5 0 0 1-.5-.5v-105.5a.51.5 0 0 1 .51-.5l226.99.23Zm-790.75 212.78 272-.01a.81.77-90 0 1 .77.81v110a.52.44 0 0 1-.52.44h-404.25a.5.5 0 0 1-.5-.5V148.25a.5.5 0 0 1 .5-.5h131a.5.5 0 0 1 .5.5V607.5a.5.26 0 0 0 .5.26Z"/><circle cx="298.95" cy="298.74" r="52.53" fill="#fff"/><path fill="#fff" d="M457.25 596.75h86.25a.5.5 0 0 1 .5.5V631a.5.5 0 0 1-.5.5H422a.5.5 0 0 1-.5-.5V246.75a.5.5 0 0 1 .5-.5h34.25a.5.5 0 0 1 .5.5v349.5a.5.5 0 0 0 .5.5Z"/></svg>