<!-- icon666.com - MILLIONS vector ICONS FREE --><svg version="1.1" id="Layer_1" xmlns="http://www.w3.org/2000/svg" xmlns:xlink="http://www.w3.org/1999/xlink" x="0px" y="0px" viewBox="0 0 512 512" style="enable-background:new 0 0 512 512;" xml:space="preserve"><g><g><path d="M478.608,73.534h-34.46v-36.31h34.46c5.771,0,10.449-4.679,10.449-10.449c0-5.77-4.678-10.449-10.449-10.449h-34.514 C443.537,7.233,435.983,0,426.751,0h-23.877c-26.582,0-49.169,18.807-54.516,43.613H84.299c-34.094,0-61.833,27.716-61.833,61.784 c0,33.942,27.738,61.555,61.833,61.555h333.127c14.286,0,27.534,5.679,37.303,15.989c2.055,2.168,4.818,3.262,7.587,3.262 c2.58,0,5.165-0.95,7.185-2.864c4.189-3.969,4.368-10.583,0.398-14.772c-13.557-14.307-32.681-22.513-52.473-22.513H84.299 c-22.572,0-40.935-18.239-40.935-40.657c0-22.545,18.363-40.886,40.935-40.886h263.682c1.894,10.816,6.986,20.794,14.845,28.819 c10.417,10.635,24.351,16.492,39.238,16.492h24.688c8.913,0,16.271-6.741,17.27-15.39h34.586c5.771,0,10.449-4.679,10.449-10.449 C489.057,78.213,484.379,73.534,478.608,73.534z M423.25,88.925h-21.185c-9.222,0-17.855-3.629-24.307-10.216 c-6.449-6.585-9.894-15.295-9.703-24.527c0.383-18.353,16.005-33.284,34.821-33.284h20.375V88.925z"></path></g></g><g><g><path d="M484.987,192.679c-2.026-5.403-8.05-8.139-13.452-6.115c-5.404,2.026-8.141,8.049-6.116,13.453 c2.136,5.694,3.218,11.703,3.218,17.86c0.001,13.708-5.338,26.646-15.034,36.429c-9.698,9.787-22.546,15.175-36.179,15.175h-49.31 v-6.931c0-22.626-18.409-41.034-41.035-41.034H108.432c-19.017,0-35.05,13.004-39.683,30.585H32.915 c-5.771,0-10.449,4.678-10.449,10.449v208.271c0,5.77,4.678,10.449,10.449,10.449h35.794C73.294,498.926,89.364,512,108.432,512 h218.647c22.627,0,41.035-18.408,41.035-41.035V290.381h49.31c19.25,0,37.371-7.587,51.022-21.363 c13.6-13.724,21.089-31.886,21.088-51.14C489.535,209.207,488.004,200.73,484.987,192.679z M43.364,460.376V273.003h199.053 v187.373H43.364z M327.08,491.102H108.432c-7.334,0-13.746-3.953-17.267-9.828h161.701c5.771,0,10.449-4.679,10.449-10.449 V262.553c0-5.771-4.678-10.449-10.449-10.449H91.25c3.54-5.797,9.907-9.687,17.181-9.687h218.647 c11.104,0,20.137,9.033,20.137,20.136v208.412h0.001C347.217,482.068,338.183,491.102,327.08,491.102z"></path></g></g><g><g><path d="M211.895,357.71l-52.337-30.216c-3.233-1.867-7.216-1.867-10.449,0c-3.233,1.866-5.224,5.316-5.224,9.049v60.434 c0,3.732,1.992,7.183,5.224,9.049c1.616,0.934,3.42,1.4,5.224,1.4c1.805,0,3.608-0.466,5.224-1.4l52.337-30.217 c3.233-1.866,5.224-5.316,5.224-9.049C217.12,363.027,215.128,359.577,211.895,357.71z M164.783,378.879v-24.237l20.99,12.118 L164.783,378.879z"></path></g></g><g><g><path d="M77.845,295.934c-5.771,0-10.449,4.679-10.449,10.449v4.678c0,5.77,4.678,10.449,10.449,10.449 s10.449-4.679,10.449-10.449v-4.678C88.294,300.612,83.616,295.934,77.845,295.934z"></path></g></g><g><g><path d="M77.845,334.415c-5.771,0-10.449,4.679-10.449,10.449v77.231c0,5.77,4.678,10.449,10.449,10.449 s10.449-4.679,10.449-10.449v-77.23C88.294,339.093,83.616,334.415,77.845,334.415z"></path></g></g></svg>