<!-- icon666.com - MILLIONS vector ICONS FREE --><svg version="1.1" id="Layer_1" xmlns="http://www.w3.org/2000/svg" xmlns:xlink="http://www.w3.org/1999/xlink" x="0px" y="0px" viewBox="0 0 512 512" style="enable-background:new 0 0 512 512;" xml:space="preserve"><g><g><g><path d="M256,144H32c-17.648,0-32,14.352-32,32v160c0,17.648,14.352,32,32,32h64v32H80c-8.848,0-16,7.168-16,16 c0,8.832,7.152,16,16,16h128c8.848,0,16-7.168,16-16c0-8.832-7.152-16-16-16h-16v-32h64c17.648,0,32-14.352,32-32V176 C288,158.352,273.648,144,256,144z M160,400h-32v-32h32V400z M32,336V176h224l0.016,160H32z"></path><path d="M496,80H336c-8.848,0-16,7.168-16,16v320c0,8.832,7.152,16,16,16h160c8.848,0,16-7.168,16-16V96 C512,87.168,504.848,80,496,80z M480,400H352V112h128V400z"></path><path d="M416,320c-17.68,0-32,14.32-32,32s14.32,32,32,32s32-14.32,32-32S433.68,320,416,320z M416,368c-8.816,0-16-7.184-16-16 c0-8.816,7.184-16,16-16c8.816,0,16,7.184,16,16C432,360.816,424.816,368,416,368z"></path><path d="M368,160h96c4.416,0,8-3.584,8-8s-3.584-8-8-8h-96c-4.416,0-8,3.584-8,8S363.584,160,368,160z"></path><path d="M368,208h96c4.416,0,8-3.584,8-8s-3.584-8-8-8h-96c-4.416,0-8,3.584-8,8S363.584,208,368,208z"></path><path d="M368,256h96c4.416,0,8-3.584,8-8s-3.584-8-8-8h-96c-4.416,0-8,3.584-8,8S363.584,256,368,256z"></path><path d="M232,192H56c-4.416,0-8,3.584-8,8v112c0,4.416,3.584,8,8,8h176c4.416,0,8-3.584,8-8V200C240,195.584,236.416,192,232,192 z M224,304H64v-96h160V304z"></path></g></g></g></svg>