<!-- icon666.com - MILLIONS vector ICONS FREE --><svg version="1.1" id="Capa_1" xmlns="http://www.w3.org/2000/svg" xmlns:xlink="http://www.w3.org/1999/xlink" x="0px" y="0px" viewBox="0 0 480 480" style="enable-background:new 0 0 480 480;" xml:space="preserve"><g><g><path d="M472,48H8c-4.418,0-8,3.582-8,8v336c0,4.418,3.582,8,8,8h27.056L24.84,420.424c-1.975,3.952-0.372,8.757,3.58,10.732 C29.532,431.712,30.757,432,32,432h48c3.032,0.001,5.805-1.712,7.16-4.424L100.944,400h278.112l13.784,27.576 c1.355,2.712,4.128,4.425,7.16,4.424h48c4.418,0.024,8.02-3.538,8.044-7.956c0.007-1.256-0.282-2.496-0.844-3.62L444.944,400H472 c4.418,0,8-3.582,8-8V56C480,51.582,476.418,48,472,48z M75.056,416H44.944l8-16h30.112L75.056,416z M404.944,416l-8-16h30.112 l8,16H404.944z M464,384H16V64h448V384z"></path></g></g><g><g><path d="M440,80H40c-4.418,0-8,3.582-8,8v240c0,4.418,3.582,8,8,8h400c4.418,0,8-3.582,8-8V88C448,83.582,444.418,80,440,80z M432,320H48V96h384V320z"></path></g></g><g><g><rect x="232" y="352" width="16" height="16"></rect></g></g><g><g><path d="M88,112c-13.255,0-24,10.745-24,24v48h16v-48c0-4.418,3.582-8,8-8h32v-16H88z"></path></g></g><g><g><rect x="64" y="200" width="16" height="16"></rect></g></g></svg>