<?xml version="1.0" encoding="UTF-8"?>
<svg id="_Слой_2" data-name="Слой_2" xmlns="http://www.w3.org/2000/svg" viewBox="0 0 139.5 25.27">
  <defs>
    <style>
      .cls-1 {
        fill: #1d1d1b;
      }

      .cls-2 {
        fill: #fff;
      }
    </style>
  </defs>
  <g id="_Слой_1-2" data-name="Слой_1">
    <g>
      <path class="cls-2" d="M20.41,0h3.56c.86,0,1.3.44,1.3,1.33l1.04,23.51h-3.17l-.9-22.21h-.76l-5.54,18.32c-.19.72-.65,1.08-1.37,1.08h-2.84c-.74,0-1.22-.36-1.44-1.08L4.75,2.63h-.72l-.86,22.21H0L.97,1.33c.05-.89.49-1.33,1.33-1.33h3.6c.67,0,1.12.36,1.33,1.08l4.64,15.16c.14.43.33,1.07.56,1.93.23.85.35,1.33.38,1.42h.65c.07-.26.21-.79.41-1.57.2-.78.38-1.4.52-1.85L19.04,1.08c.19-.72.65-1.08,1.37-1.08Z"/>
      <path class="cls-2" d="M42.37,17.57h-8.17c.17,2.02.66,3.37,1.48,4.07.82.7,2.16,1.04,4.03,1.04,2.02,0,4.06-.14,6.12-.43l.29,2.05c-1.54.65-3.8.97-6.8.97s-5.17-.7-6.44-2.11c-1.27-1.4-1.91-3.79-1.91-7.15s.62-5.75,1.87-7.11c1.25-1.36,3.3-2.03,6.16-2.03,2.62,0,4.52.47,5.72,1.42,1.2.95,1.81,2.38,1.84,4.3,0,3.31-1.39,4.97-4.18,4.97ZM34.16,15.19h7.42c1.3,0,1.92-.86,1.87-2.59,0-1.13-.32-1.93-.97-2.41-.65-.48-1.76-.72-3.35-.72-1.85,0-3.13.41-3.85,1.22-.72.82-1.09,2.32-1.12,4.5Z"/>
      <path class="cls-2" d="M51.16,24.84v-13.79c0-2.54,1.3-3.82,3.89-3.82,4.2,0,7.26.1,9.18.29l-.11,2.16h-7.81c-.74,0-1.28.17-1.62.52-.34.35-.5.89-.5,1.64v13h-3.02Z"/>
      <path class="cls-2" d="M67.97,9.94l-.29-2.27c3.26-.53,6.1-.79,8.5-.79,2.04,0,3.55.43,4.52,1.28.97.85,1.46,2.3,1.46,4.34v12.35h-2.41l-.36-2.88c-.84.86-1.89,1.61-3.15,2.25-1.26.64-2.62.95-4.09.95-1.61,0-2.88-.43-3.82-1.28-.94-.85-1.4-2.06-1.4-3.62v-1.91c0-1.37.43-2.43,1.28-3.19.85-.76,2.05-1.13,3.58-1.13h7.31v-1.55c-.02-1.1-.29-1.88-.79-2.34-.5-.46-1.43-.68-2.77-.68-1.7,0-4.22.16-7.56.47ZM70.02,18.79v1.12c0,.91.22,1.58.67,2,.44.42,1.13.63,2.07.63.94.02,1.98-.19,3.13-.65,1.15-.46,2.22-1.12,3.2-1.98v-3.53h-6.77c-1.54.07-2.3.88-2.3,2.41Z"/>
      <path class="cls-1" d="M104.94,2.81h-8.03v22.03h-3.17V2.81h-7.99V0h19.19v2.81Z"/>
      <path class="cls-1" d="M115.24,17.57h-8.17c.17,2.02.66,3.37,1.48,4.07.82.7,2.16,1.04,4.03,1.04,2.02,0,4.06-.14,6.12-.43l.29,2.05c-1.54.65-3.8.97-6.8.97s-5.17-.7-6.44-2.11c-1.27-1.4-1.91-3.79-1.91-7.15s.62-5.75,1.87-7.11c1.25-1.36,3.3-2.03,6.16-2.03,2.62,0,4.52.47,5.72,1.42,1.2.95,1.81,2.38,1.84,4.3,0,3.31-1.39,4.97-4.18,4.97ZM107.03,15.19h7.42c1.3,0,1.92-.86,1.87-2.59,0-1.13-.32-1.93-.97-2.41-.65-.48-1.76-.72-3.35-.72-1.85,0-3.13.41-3.85,1.22-.72.82-1.09,2.32-1.12,4.5Z"/>
      <path class="cls-1" d="M131.18,16.92h-.72l-5,7.92h-3.35l5.87-9.04-5.4-8.5h3.31l4.5,7.24h.83l4.54-7.24h3.31l-5.44,8.5,5.87,9.04h-3.35l-4.97-7.92Z"/>
    </g>
  </g>
</svg>